<?xml version="1.0" encoding="utf-8"?><svg viewBox="0 0 78 80" xmlns="http://www.w3.org/2000/svg" xmlns:xlink="http://www.w3.org/1999/xlink"><style>:root>svg{display:none}:root>svg:target{display:block}</style><svg fill="none" viewBox="0 0 24 12" id="arrow-icon" xmlns="http://www.w3.org/2000/svg"><path stroke="#000" stroke-width="2" d="M0 6h18"/><path d="M24 6l-6.75 5.196V.804L24 6z" fill="#000"/></svg><svg fill="none" viewBox="0 0 19 15" id="check-mark-icon" xmlns="http://www.w3.org/2000/svg"><path d="M7 11.718L1.3 5.27.25 6.457 7 14.094 18.25 1.366 17.2.094 7 11.718z" fill="#68B738"/></svg><svg fill="none" viewBox="0 0 24 19" id="check-mark-icon-xl" xmlns="http://www.w3.org/2000/svg"><path d="M9 15.499L1.4 6.901 0 8.485l9 10.182 15-16.97L22.6 0 9 15.499z" fill="#68B738"/></svg><svg fill="none" viewBox="0 0 61 60" id="clock-icon" xmlns="http://www.w3.org/2000/svg"><path fill="#68B738" d="M.5 0h60v60H.5z"/><ellipse cx="35.704" cy="24.33" rx="1.087" ry="1.085" fill="#fff"/><ellipse cx="24.831" cy="24.33" rx="1.087" ry="1.085" fill="#fff"/><ellipse cx="24.831" cy="37.351" rx="1.087" ry="1.085" fill="#fff"/><ellipse cx="30.268" cy="39.522" rx="1.087" ry="1.085" fill="#fff"/><ellipse cx="21.569" cy="30.775" rx="1.087" ry="1.085" fill="#fff"/><ellipse cx="38.966" cy="30.775" rx="1.087" ry="1.085" fill="#fff"/><ellipse cx="35.704" cy="37.351" rx="1.087" ry="1.085" fill="#fff"/><mask id="da" fill="#fff"><path fill-rule="evenodd" clip-rule="evenodd" d="M35.422 42.058a1.058 1.058 0 011.217.196l1.825 1.875a.682.682 0 00.977-.95l-1.357-1.394c-.426-.438-.361-1.15.098-1.552 2.642-2.313 4.318-5.764 4.318-9.618C42.5 23.648 37.023 18 30.268 18c-6.756 0-12.232 5.648-12.232 12.614 0 3.815 1.641 7.234 4.236 9.547.452.403.513 1.11.09 1.544l-1.434 1.473a.681.681 0 10.976.951l1.88-1.93a1.058 1.058 0 011.226-.191 11.878 11.878 0 005.258 1.221c1.841 0 3.587-.42 5.154-1.17zm-5.154-.23c6.005 0 10.873-5.02 10.873-11.214 0-6.192-4.868-11.212-10.873-11.212-6.005 0-10.873 5.02-10.873 11.212 0 6.193 4.868 11.213 10.873 11.213zm-.76-11.53V22.94a.781.781 0 111.563 0v8.183c0 .443-.36.803-.803.803a.76.76 0 01-.76-.76v-.868z"/></mask><path fill-rule="evenodd" clip-rule="evenodd" d="M35.422 42.058a1.058 1.058 0 011.217.196l1.825 1.875a.682.682 0 00.977-.95l-1.357-1.394c-.426-.438-.361-1.15.098-1.552 2.642-2.313 4.318-5.764 4.318-9.618C42.5 23.648 37.023 18 30.268 18c-6.756 0-12.232 5.648-12.232 12.614 0 3.815 1.641 7.234 4.236 9.547.452.403.513 1.11.09 1.544l-1.434 1.473a.681.681 0 10.976.951l1.88-1.93a1.058 1.058 0 011.226-.191 11.878 11.878 0 005.258 1.221c1.841 0 3.587-.42 5.154-1.17zm-5.154-.23c6.005 0 10.873-5.02 10.873-11.214 0-6.192-4.868-11.212-10.873-11.212-6.005 0-10.873 5.02-10.873 11.212 0 6.193 4.868 11.213 10.873 11.213zm-.76-11.53V22.94a.781.781 0 111.563 0v8.183c0 .443-.36.803-.803.803a.76.76 0 01-.76-.76v-.868z" fill="#fff"/><path d="M23.784 42.199l2.866 2.79-2.866-2.79zm1.226-.191l1.765-3.59-1.765 3.59zm-3.106 2.121l-2.866-2.79 2.866 2.79zm-.976-.95l2.865 2.79-2.865-2.79zm17.156-1.394l-2.865 2.79 2.865-2.79zm.098-1.552l-2.636-3.009 2.636 3.01zm-15.91-.072l-2.662 2.985 2.662-2.985zm.09 1.544l-2.866-2.79 2.866 2.79zm17.079 1.473l2.866-2.79-2.866 2.79zm-.977.951l2.866-2.79-2.866 2.79zm-1.825-1.875l-2.866 2.79 2.865-2.79zm-1.218-.196l-1.73-3.606 1.73 3.606zm-1.648 2.987l1.826 1.875 5.731-5.581-1.826-1.875-5.731 5.58zm8.534-4.658l-1.357-1.393-5.731 5.582 1.356 1.393 5.732-5.582zm-1.49 2.855c3.49-3.056 5.683-7.595 5.683-12.627h-8c0 2.676-1.16 5.038-2.953 6.61l5.27 6.017zM46.5 30.615C46.5 21.554 39.348 14 30.268 14v8c4.431 0 8.232 3.74 8.232 8.614h8zM30.268 14c-9.08 0-16.232 7.555-16.232 16.614h8c0-4.874 3.8-8.614 8.232-8.614v-8zM14.036 30.614c0 4.98 2.147 9.477 5.574 12.532l5.324-5.97c-1.762-1.572-2.898-3.913-2.898-6.562h-8zm5.46 8.3l-1.434 1.473 5.731 5.582 1.434-1.473-5.73-5.581zm5.274 8.006l1.88-1.93-5.732-5.582-1.88 1.93 5.732 5.582zm-1.525-1.323a15.878 15.878 0 007.023 1.632v-8a7.879 7.879 0 01-3.493-.811l-3.53 7.18zm7.023 1.632c2.456 0 4.792-.56 6.884-1.565l-3.46-7.212a7.886 7.886 0 01-3.424.777v8zm0-1.402c8.33 0 14.873-6.928 14.873-15.212h-8c0 4.1-3.192 7.212-6.873 7.212v8zM45.14 30.615c0-8.285-6.544-15.213-14.873-15.213v8c3.68 0 6.873 3.112 6.873 7.212h8zM30.268 15.402c-8.33 0-14.873 6.928-14.873 15.213h8c0-4.101 3.192-7.213 6.873-7.213v-8zM15.395 30.615c0 8.284 6.544 15.212 14.873 15.212v-8c-3.68 0-6.873-3.112-6.873-7.212h-8zm11.676-.317v.543h8v-.543h-8zm0 .543v.282h8v-.282h-8zm6.437.325v-.325h-8v.325h8zm0-.325v-.543h-8v.543h8zm0-.543V26.5h-8v3.798h8zm0-3.798v-3.56h-8v3.56h8zm-6.437-3.56v3.56h8v-3.56h-8zm0 3.56v3.798h8V26.5h-8zm3.218-8.34a4.781 4.781 0 00-4.78 4.78h8a3.219 3.219 0 01-3.22 3.22v-8zm-3.218 12.963a3.197 3.197 0 013.197-3.197v8a4.803 4.803 0 004.803-4.803h-8zm-.422 13.867a2.943 2.943 0 01-3.404.607l3.53-7.179c-1.826-.898-4.227-.683-5.857.99l5.732 5.582zm-8.587 1.93a4.682 4.682 0 006.708 0l-5.732-5.581a3.318 3.318 0 014.755 0l-5.731 5.58zm0-6.533a4.681 4.681 0 000 6.533l5.731-5.581a3.318 3.318 0 010 4.63l-5.731-5.582zm22.888-1.393c1.343 1.38.944 3.305-.133 4.248l-5.27-6.018c-1.995 1.748-2.523 5.098-.328 7.352l5.731-5.582zM30.29 26.16a3.219 3.219 0 01-3.22-3.22h8a4.78 4.78 0 00-4.78-4.78v8zM19.61 43.146c-1.064-.948-1.447-2.862-.114-4.231l5.731 5.581c2.18-2.238 1.675-5.565-.293-7.32l-5.324 5.97zm22.697 3.774a4.682 4.682 0 000-6.533l-5.732 5.582a3.318 3.318 0 010-4.63l5.732 5.58zm-6.708 0a4.682 4.682 0 006.708 0l-5.732-5.581a3.318 3.318 0 014.755 0l-5.731 5.58zm-5.331-18.994a3.24 3.24 0 013.24 3.24h-8a4.76 4.76 0 004.76 4.76v-8zm9.236 11.538c-1.616-1.66-3.992-1.886-5.813-1.012l3.46 7.212a2.943 2.943 0 01-3.378-.62l5.731-5.58z" fill="#fff" mask="url(#da)"/><path fill="#fff" d="M29.5 19v-4H31v4z"/><rect x="22.5" y="15" width="15.5" height="1.5" rx=".75" fill="#fff"/></svg><svg fill="none" viewBox="0 0 24 18" id="comparison-arrow" xmlns="http://www.w3.org/2000/svg"><path d="M8 0L0 9l8 9V0zm16 9l-8-9v18l8-9z" fill="#666"/></svg><svg fill="none" viewBox="0 0 19 14" id="email-icon" xmlns="http://www.w3.org/2000/svg"><path stroke="#222" stroke-width="1.3" d="M.65 5.848v8m17-8v8M0 13.198h18m-18-12h18m-.65 1.832L9 9.524.65 3.03V1.498h16.7V3.03z"/></svg><svg fill="none" viewBox="0 0 61 60" id="fast-cooking-icon" xmlns="http://www.w3.org/2000/svg"><path fill="#68B738" d="M.5 0h60v60H.5z"/><g clip-path="url(#ga)" fill="#fff"><path d="M36.276 31.473c-1.706 0-3.088 1.479-3.088 3.301 0 1.824 1.383 3.302 3.088 3.302 1.706 0 3.088-1.478 3.088-3.302 0-1.823-1.383-3.3-3.088-3.3zm0 5.013c-.884 0-1.6-.766-1.6-1.71 0-.947.716-1.713 1.6-1.713.884 0 1.602.766 1.602 1.712 0 .945-.718 1.711-1.602 1.711zM27.107 12.99c-1.76 0-3.188 1.525-3.188 3.407 0 1.882 1.427 3.407 3.188 3.407 1.76 0 3.187-1.524 3.187-3.407s-1.427-3.407-3.187-3.407zm0 5.476c-1.07 0-1.936-.926-1.936-2.07 0-1.142.866-2.069 1.935-2.069 1.07 0 1.936.927 1.936 2.07 0 1.143-.866 2.069-1.936 2.069zm-3.38 12.144c-1.294 0-2.341 1.12-2.341 2.503s1.047 2.503 2.34 2.503c1.295 0 2.342-1.12 2.342-2.503 0-1.382-1.047-2.503-2.341-2.503zM23.5 32.5c-.459 0 1.158 1.104 1.158.613 0-.49-1.617.387-1.158.387.459 0 1.057-.877 1.057-.388 0 .49-.598-.612-1.057-.612zM34 22.763s3.04-.839 6.178 1.493c.907.76 1.766 1.337 1.152 2.123-.343.34-.637.657-1.716-.524-1.054-.76-2.72-1.898-5.614-1.442-1.128.237-1.961.551-3.555 2.15-1.594 1.598-3.973 2.725-6.498 2.489-2.525-.236-3.849-1.258-5.246-2.542-.294-.42-.294-.865-.123-1.127.171-.262.833-.524 1.201-.132.368.394 2.109 1.966 3.825 2.07 1.716.105 3.433.21 5.737-1.965 2.306-2.174 3.458-2.331 4.66-2.593z"/><mask id="ga"><path d="M44.146 39.816V21.157c0-.578-.374-.65-.524-.655h-.506c-.493 0-.536.557-.538.739v.059c.002 3.609.01 18.253-.002 18.54a2.681 2.681 0 01-.82 1.887c-.809.695-1.618.603-1.618.603s-20.177 0-20.655-.026c-.38-.066-1.042-.21-1.606-1.01-.564-.798-.453-1.847-.453-1.847V21.315c0-.839-.675-.812-.675-.812h-.307c-.536 0-.585.588-.588.776v18.537c0 1.337.454 2.398 1.548 3.337 1.094.939 2.375.856 2.375.856s19.723 0 20.581-.002c.859-.003 1.986-.417 2.916-1.555.93-1.14.872-2.636.872-2.636z"/></mask><path d="M44.146 39.816V21.157c0-.578-.374-.65-.524-.655h-.506c-.493 0-.536.557-.538.739v.059c.002 3.609.01 18.253-.002 18.54a2.681 2.681 0 01-.82 1.887c-.809.695-1.618.603-1.618.603s-20.177 0-20.655-.026c-.38-.066-1.042-.21-1.606-1.01-.564-.798-.453-1.847-.453-1.847V21.315c0-.839-.675-.812-.675-.812h-.307c-.536 0-.585.588-.588.776v18.537c0 1.337.454 2.398 1.548 3.337 1.094.939 2.375.856 2.375.856s19.723 0 20.581-.002c.859-.003 1.986-.417 2.916-1.555.93-1.14.872-2.636.872-2.636z"/><path d="M44.146 39.816h-20v.387l.015.387 19.985-.774zm-.524-19.314l.71-19.987-.355-.013h-.355v20zm-1.044.739l-20-.15v.15h20zm0 .06h-20v.008l20-.008zm-.002 18.54l-19.985-.758v.013l19.986.745zm-.82 1.887l13.039 15.165.431-.37.41-.396-13.88-14.399zm-1.618.603l2.26-19.872-1.127-.128h-1.133v20zm-20.655-.026l-3.395 19.71 1.133.195 1.149.064 1.113-19.97zm-1.606-1.01L1.533 52.824l.004.006 16.34-11.533zm-.453-1.847l19.89 2.098.11-1.046v-1.052h-20zm-.675-18.945v20h.388l.387-.016-.775-19.984zm-.895.776l-19.998-.288-.002.144v.144h20zm1.548 21.874L4.376 58.33l13.026-15.177zm2.375.856v-20h-.643l-.64.041 1.283 19.96zm23.497-1.557l15.49 12.653.005-.008-15.495-12.645zm20.872-2.636V21.157h-40v18.659h40zm0-18.659c0-4.97-1.859-11.419-7.618-16.084-4.89-3.96-10.03-4.481-12.196-4.558l-1.42 39.974a19.462 19.462 0 01-11.56-4.332c-5.535-4.483-7.206-10.608-7.206-15h40zM43.622.502h-.506v40h.506v-40zm-.506 0a20.47 20.47 0 00-12.283 4.083 20.527 20.527 0 00-6.419 8.034 21.136 21.136 0 00-1.835 8.473l39.999.298c-.006.733-.014 3.914-1.667 7.598a19.474 19.474 0 01-6.096 7.61 19.53 19.53 0 01-11.699 3.904v-40zM22.578 21.241v.051h40v-.052h-40zm0 .05v.011h40v-.011h-40zm0 .018l.004 10.511a8664.752 8664.752 0 01-.002 7.252c-.002.788-.006.45.01.011L62.563 40.6c.02-.51.018-1.37.018-1.45l.002-1.807v-5.529c0-4.15-.003-8.719-.004-10.52l-40 .016zm.012 17.787c.05-1.35.384-7.042 5.285-11.766l27.761 28.797c6.396-6.166 6.852-13.536 6.927-15.54L22.59 39.096zm6.126-12.532a17.512 17.512 0 017.807-3.844 17.955 17.955 0 014.628-.362 19.312 19.312 0 011.172.093l.037.004.019.002c.01.001.019.002-2.241 19.874-2.26 19.872-2.25 19.873-2.241 19.874l.018.003a42.98 42.98 0 00.269.028 20.68 20.68 0 002.597.093 22.044 22.044 0 003.983-.468 22.487 22.487 0 0010.03-4.968l-26.078-30.33zM40.138 42.33v-20h-3.156a17380.765 17380.765 0 01-14.032-.01l-2.357-.007c-1.071-.005-.613-.013.002.022L18.37 62.274c.97.054 7.17.051 11.606.054l6.997.003h3.164v-20zM22.877 22.595c.432.074 2.526.427 4.938 1.653a17.618 17.618 0 016.401 5.514L1.537 52.83c4.995 7.076 11.877 8.725 14.551 9.186l6.789-39.42zm11.344 7.174c2.348 3.33 2.908 6.508 3.08 7.954a16.586 16.586 0 01.049 3.439 18.522 18.522 0 01-.027.29l-.005.047-.002.024-.002.011c0 .006 0 .012-19.89-2.086s-19.89-2.092-19.891-2.086l-.002.012-.002.024a19.88 19.88 0 00-.069.827 23.438 23.438 0 00.117 4.197c.257 2.17 1.043 6.272 3.956 10.401L34.22 29.768zm3.203 9.68V21.314h-40v18.133h40zm0-18.134c0-6.89-3.412-14.004-10.265-17.999A20.69 20.69 0 0016 .516c-.013.001-.025.002.75 19.987.776 19.984.763 19.985.751 19.986h-.024l-.05.002a28.228 28.228 0 01-.3.008 19.363 19.363 0 01-17.35-10.06 19.028 19.028 0 01-2.352-9.124h40zM16.748.503h-.307v40h.307v-40zm-.307 0c-4.037 0-8.32 1.191-12.061 3.905a20.562 20.562 0 00-6.553 7.946 21.167 21.167 0 00-1.972 8.637l39.996.577c-.011.758-.045 3.996-1.784 7.718a19.438 19.438 0 01-6.2 7.5 19.477 19.477 0 01-11.426 3.717v-40zM-4.146 21.279v18.537h40V21.279h-40zm0 18.537c0 7.063 2.92 13.705 8.522 18.514l26.051-30.354c1.295 1.111 2.855 2.871 3.994 5.373a15.716 15.716 0 011.433 6.467h-40zM4.377 58.33a23.586 23.586 0 0010.48 5.17 23.615 23.615 0 005.087.51 21.336 21.336 0 00.991-.034l.063-.004.03-.002h.016c.008-.001.016-.002-1.267-19.96-1.283-19.96-1.276-19.96-1.268-19.96l.015-.002.03-.001.062-.004a16.029 16.029 0 01.372-.018 18.5 18.5 0 011.583.008c.737.037 1.607.13 2.571.334 1.88.398 4.642 1.34 7.285 3.609L4.377 58.33zm15.4-14.32v20h3.095l6.875-.001c5.007 0 10.202 0 10.668-.002l-.113-40H39.22l-2.443.001-7.033.001h-9.967v20zm20.638 19.997c7.104-.02 13.8-3.336 18.348-8.903L27.786 29.8c2.686-3.29 7.128-5.777 12.516-5.792l.113 40zm18.354-8.91c3.245-3.977 4.434-8.096 4.913-10.529a24.742 24.742 0 00.464-4.58 21.801 21.801 0 00-.013-.895l-.001-.026v-.013c-.001-.006-.001-.013-19.986.762-19.985.774-19.986.767-19.986.761v-.013l-.001-.025-.002-.05a17.128 17.128 0 01.016-1.569c.033-.576.105-1.28.262-2.075.275-1.4 1.028-4.201 3.344-7.039l30.99 25.291z" mask="url(#ga)"/></g><defs><clipPath id="ga"><path fill="#fff" transform="translate(15.5 13)" d="M0 0h29v31H0z"/></clipPath></defs></svg><svg fill="none" viewBox="0 0 78 80" id="gift-icon" xmlns="http://www.w3.org/2000/svg"><path d="M64.016 34.713H14.03c-1.754 0-3.182-1.418-3.182-3.16v-9.469c0-1.742 1.428-3.16 3.182-3.16h49.984c1.754 0 3.18 1.418 3.18 3.16v9.469c0 1.742-1.426 3.16-3.18 3.16zM14.03 21.346a.751.751 0 00-.744.738v9.469c0 .407.334.738.744.738h49.984c.41 0 .743-.331.743-.738v-9.469a.75.75 0 00-.743-.738H14.03z" fill="#fff"/><path d="M57.045 67.149H20.999c-3.377 0-6.125-2.73-6.125-6.086V33.502c0-.669.546-1.212 1.219-1.212s1.219.543 1.219 1.212v27.56c0 2.021 1.654 3.665 3.687 3.665h36.046c2.032 0 3.686-1.644 3.686-3.664V33.502c0-.669.546-1.212 1.219-1.212.672 0 1.218.543 1.218 1.212v27.56c0 3.357-2.747 6.087-6.123 6.087z" fill="#fff"/><path d="M39.023 67.149a1.215 1.215 0 01-1.22-1.211V33.502c0-.669.547-1.212 1.22-1.212.672 0 1.218.543 1.218 1.212v32.435c0 .67-.545 1.212-1.218 1.212zM23.811 21.341c-3.814-2.054-5.238-6.808-3.173-10.6 2.064-3.789 6.848-5.204 10.665-3.154 5.814 3.13 8.954 11.86 9.084 12.23l-2.3.804c-.029-.083-2.961-8.222-7.944-10.904-2.635-1.415-5.937-.438-7.36 2.177-1.426 2.618-.444 5.9 2.19 7.318l-1.162 2.13z" fill="#fff"/><path d="M54.231 21.341l-1.16-2.13a5.376 5.376 0 002.622-3.207 5.327 5.327 0 00-.431-4.109 5.382 5.382 0 00-3.226-2.604 5.426 5.426 0 00-4.134.426c-4.982 2.682-7.915 10.82-7.944 10.903l-2.3-.803c.131-.37 3.27-9.101 9.084-12.23a7.859 7.859 0 015.99-.617 7.8 7.8 0 014.674 3.771 7.72 7.72 0 01.623 5.953 7.788 7.788 0 01-3.798 4.647zm7.719 29.59H16.093a1.215 1.215 0 01-1.219-1.21c0-.67.546-1.212 1.219-1.212H61.95c.672 0 1.218.543 1.218 1.211 0 .669-.545 1.211-1.218 1.211z" fill="#fff"/></svg><svg fill="none" viewBox="0 0 61 60" id="healthy-nutrients-icon" xmlns="http://www.w3.org/2000/svg"><path fill="#68B738" d="M.5 0h60v60H.5z"/><g clip-path="url(#ia)"><path d="M43.344 16.767c-.1-.45-.48-.767-.912-.767h-.005c-4.938.033-16.945.916-21.793 8.38-2.518 3.878-2.735 8.913-.644 14.965.016.047.048.079.07.122-.747 1.973-1.037 3.286-1.044 3.323-.11.54.214 1.072.72 1.188a.88.88 0 00.197.022c.433 0 .822-.321.916-.79.02-.102 2.409-10.373 10.854-16.378.431-.306.547-.927.26-1.387-.288-.46-.87-.585-1.3-.277-4.79 3.405-7.739 8.008-9.473 11.656-1.242-4.578-.916-8.377.986-11.305 3.743-5.764 12.622-7.154 17.982-7.448-1.153 1.801-2.413 5.103-2.413 10.929 0 3.12-.83 5.522-2.465 7.14-2.62 2.591-6.88 2.834-9.993 2.584-.518-.045-.967.371-1.006.922-.04.55.347 1.03.863 1.072.623.051 1.29.082 1.981.082 3.17 0 6.87-.663 9.43-3.194 2.034-2.011 3.065-4.906 3.065-8.605 0-9.099 3.216-11.096 3.232-11.105.39-.209.594-.677.492-1.129z" fill="#fff"/></g><defs><clipPath id="ia"><path fill="#fff" transform="translate(15.5 14)" d="M0 0h30v32H0z"/></clipPath></defs></svg><svg viewBox="0 0 27 34" id="htmlacademy-logo" xmlns="http://www.w3.org/2000/svg"><path d="M13.643.016L13.5 0 0 1.407v24.606L13.5 34 27 26.013V1.407L13.643.016zm11.591 25L13.5 31.956 1.766 25.015V14.93l11.685 6.916.02 1.253-8.017-4.743-.011 1.225 8.046 4.809.02 1.286-8.045-4.758-.01 1.226L13.5 26.95l8.124-4.833V16.91l3.62-2.15-.01 10.256zm0-11.564l-3.22 1.88-1.482.875-7.065-4.187-.011 1.225 6.04 3.573-.053.031-.13.076-.86.492-4.986-2.948-.011 1.225 3.936 2.328-.933.61-.021.012-2.971-1.742-.011 1.225 1.947 1.135-1.988 1.186-11.618-6.872 11.638-6.958 11.8 6.834zm0-1.225L13.44 5.31 1.766 12.22V2.99L13.5 1.764 25.234 2.99v9.237z" fill="currentColor"/></svg><svg fill="none" viewBox="0 0 61 60" id="mess-gears-icon" xmlns="http://www.w3.org/2000/svg"><path fill="#68B738" d="M.5 0h60v60H.5z"/><path fill-rule="evenodd" clip-rule="evenodd" d="M37.117 15.076a1 1 0 011.09.217c.909.908 2.097 2.878 3.059 5.918C42.237 24.28 43 28.508 43 34a1 1 0 01-1 1h-3.5v9a1 1 0 11-2 0V16a1 1 0 01.617-.924zM38.5 33h2.491c-.086-4.816-.786-8.512-1.632-11.186-.278-.88-.57-1.642-.859-2.295V33zm-14-18a1 1 0 011 1v28a1 1 0 11-2 0V16a1 1 0 011-1z" fill="#fff"/><path fill-rule="evenodd" clip-rule="evenodd" d="M20 15a1 1 0 011 1v5.5c0 .557.192 1.315.7 1.917.48.566 1.315 1.083 2.8 1.083a1 1 0 110 2c-2.015 0-3.43-.733-4.326-1.792A5.068 5.068 0 0119 21.5V16a1 1 0 011-1z" fill="#fff"/><path fill-rule="evenodd" clip-rule="evenodd" d="M29 15a1 1 0 00-1 1v5.5a3.07 3.07 0 01-.7 1.917c-.48.566-1.315 1.083-2.8 1.083a1 1 0 000 2c2.014 0 3.43-.733 4.326-1.792A5.068 5.068 0 0030 21.5V16a1 1 0 00-1-1z" fill="#fff"/></svg><svg fill="none" viewBox="0 0 20 21" id="phone-icon" xmlns="http://www.w3.org/2000/svg"><g clip-path="url(#la)" fill="#000"><path d="M17.9 9.753H9.4v1.204h8.5l-2.1 2.107.9.903 3.1-3.11a.754.754 0 000-.904l-3.1-3.11-.9.903 2.1 2.007zM8.1 19.787v-6.221a.653.653 0 00-.6-.602H3.1a1.226 1.226 0 001.2 1.204h2.5v5.017H3.1a1.784 1.784 0 01-1.728-1.02 1.801 1.801 0 01-.172-.686V3.431a1.78 1.78 0 01.483-1.25A1.767 1.767 0 012.9 1.624h3.9v5.017H4.4a1.218 1.218 0 00-1.2 1.204h4.4a.649.649 0 00.6-.602V.923A.863.863 0 007.5.32H3.1a2.99 2.99 0 00-2.151.81A3.01 3.01 0 000 3.23v13.948a2.91 2.91 0 00.772 2.192 2.89 2.89 0 002.128.919h4.6a.499.499 0 00.6-.502z"/></g><defs><clipPath id="la"><path fill="#fff" transform="translate(0 .32)" d="M0 0h20v20.069H0z"/></clipPath></defs></svg><svg viewBox="0 0 20 18" id="telegram-icon" xmlns="http://www.w3.org/2000/svg"><path fill-rule="evenodd" clip-rule="evenodd" d="M19.46.153c.18.15.265.382.227.611l-2.626 15.757a.657.657 0 01-1.012.439l-7.878-5.253a.656.656 0 01-.149-.956l2.611-3.263-4.36 2.906a.657.657 0 01-.658.041L.363 7.81a.657.657 0 01.073-1.205L18.819.038a.657.657 0 01.642.115zM2.327 7.323L5.862 9.09l7.561-5.04a.656.656 0 01.877.956l-4.805 6.006 6.438 4.292L18.208 1.65 2.326 7.323z" fill="#666"/></svg><svg viewBox="0 0 27 17" id="vkontakte-icon" xmlns="http://www.w3.org/2000/svg"><path d="M0 2.339C0 1.484.515 1.023 1.545.956l3.97.025a.52.52 0 01.533.377c.409 1.257.866 2.343 1.372 3.257.506.913 1.168 1.965 1.985 3.156a.36.36 0 00.346.226c.125 0 .222-.059.293-.176l.08-.277.027-4.35c0-.302-.075-.503-.226-.604-.151-.1-.431-.176-.84-.226-.32-.05-.48-.235-.48-.553 0-.067.01-.118.027-.151C9.005.57 10.072.025 11.83.025L13.322 0c.675 0 1.234.16 1.678.478.444.318.666.821.666 1.509v5.708c.125.084.24.126.347.126.266 0 .497-.15.692-.453 1.954-2.582 3.011-4.308 3.17-5.18 0-.017.019-.059.054-.126.125-.251.329-.47.613-.654.284-.184.533-.31.746-.377a.554.554 0 01.24-.05h4.13l.266.025c.355 0 .63.16.826.478.07.1.12.21.146.327.027.117.045.234.054.352.009.117.013.184.013.2v.177c-.124.687-.44 1.42-.946 2.2-.506.78-1.15 1.622-1.931 2.528-.782.905-1.27 1.5-1.466 1.785-.16.201-.24.386-.24.554 0 .134.071.285.213.452l3.89 4.627c.213.269.32.562.32.88 0 .386-.16.705-.48.956-.32.252-.701.394-1.145.428l-.453.025h-4.05a.855.855 0 00-.106.012.862.862 0 01-.107.013c-.39 0-.755-.16-1.092-.478-.125-.134-.96-1.123-2.505-2.967a1.387 1.387 0 00-.373-.327c-.07.268-.164.654-.28 1.157-.115.503-.2.863-.253 1.081l-.08.428c-.177.586-.55.938-1.119 1.056l-.373.025h-2.61c-1.475 0-2.945-.637-4.41-1.911-1.466-1.275-2.784-2.922-3.957-4.942C2.238 8.102 1.146 5.75.133 3.068A1.916 1.916 0 010 2.338zm16.013 6.513c-.373 0-.71-.096-1.013-.29-.302-.192-.453-.456-.453-.791V1.987c0-.336-.089-.575-.266-.717-.178-.143-.489-.214-.933-.214l-1.518.05c-.764 0-1.341.126-1.732.378.781.352 1.172.922 1.172 1.71V7.62a1.5 1.5 0 01-.533 1.043 1.59 1.59 0 01-1.066.415c-.532 0-.94-.243-1.225-.729C7.06 6.371 6.03 4.493 5.356 2.716l-.24-.654-3.544-.025c-.231 0-.36.013-.386.038-.027.025-.04.096-.04.213 0 .151.017.31.053.478l.56 1.409c1.491 3.638 3.112 6.505 4.862 8.6 1.75 2.096 3.468 3.144 5.155 3.144h2.665c.106 0 .186-.03.24-.088.053-.06.097-.172.133-.34l.053-.251.506-2.213c.142-.302.267-.503.373-.604a.975.975 0 01.693-.277c.426 0 .861.243 1.305.73l2.265 2.716c.142.218.293.327.453.327h4.396c.533 0 .8-.126.8-.378a.466.466 0 00-.08-.251l-3.864-4.552c-.302-.352-.453-.73-.453-1.131 0-.403.142-.788.427-1.157.23-.336.679-.893 1.345-1.673a37.63 37.63 0 001.745-2.188c.498-.679.826-1.295.986-1.848l.08-.327a.371.371 0 01-.027-.163.574.574 0 00-.026-.189h-4.183c-.267.1-.48.252-.64.453l-.16.478c-.444 1.156-1.607 2.942-3.49 5.356a1.892 1.892 0 01-1.305.503z" fill="#666"/></svg><svg fill="none" viewBox="0 0 67 50" id="weight-gain-cat-icon" xmlns="http://www.w3.org/2000/svg"><circle cx="34.5" cy="25" r="25" fill="#68B738"/><g clip-path="url(#oa)"><path d="M61.55 13.9a7.598 7.598 0 012.25-2.3c.5-.35.8-.35 1.1.3.4.95.75 1.95.45 3a1.145 1.145 0 00.2 1.05c.3.4.55.8.8 1.15a3.136 3.136 0 01.45 3.1 2.715 2.715 0 00-.1 1.55c.1.495.1 1.005 0 1.5a1.875 1.875 0 01-1.35 1.6c-.64.122-1.21.478-1.6 1a.525.525 0 01-.45.25c-.6.1-2.1-1.25-2.1-1.85v-.3c.05-1.8-.05-1.95-1.7-2.7a2.195 2.195 0 01-.9-.6c-.3-.4-.7-.35-1.15-.2-.45.15-.7.45-.65.95.15 1.21.2 2.431.15 3.65a.94.94 0 00.1.4c1.55 2.25 2.15 4.9 2.9 7.45.6 1.95 1.7 3 3.7 3.15.32.026.638.076.95.15a2.08 2.08 0 011.7 1.6c.35 1.05.15 1.3-.9 1.3h-3.25a1.62 1.62 0 01-1.15-.4 5.855 5.855 0 00-1.7-1 3.63 3.63 0 01-1.7-1.3 14.304 14.304 0 00-2-2.25c-1.4-1.45-2.9-2.85-4.2-4.35a5.69 5.69 0 01-1.6-3.8c0-.45-.1-.65-.6-.45a.965.965 0 01-.5.15c-1.4 0-2.1.85-2.6 2.1-.45 1.05-1.05 2.05-1.6 3.1A5.194 5.194 0 0044 33c0 1.2.3 1.6 1.4 2 .7.25 1.35.5 1.7 1.2.4.8.3 1-.55 1.05h-3.4a.94.94 0 01-.95-.55l-.9-1.5a3.024 3.024 0 01-.35-2.7 5.93 5.93 0 00.05-2.65 4.209 4.209 0 01.85-3.5c.3-.35.3-.5-.2-.6a25.028 25.028 0 01-5.9-2.05.05.05 0 01-.05-.05c-1.6-.6-1.9-.5-2.35 1.15-.4 1.4-.8 2.8-1.1 4.25-.35 1.6.05 3.1.55 4.6.2.6.8.55 1.25.7 1 .3 1.85.7 2.25 1.75.35.8.3.9-.55.9-.85 0-1.7-.05-2.6 0a3.32 3.32 0 01-2.1-.7c-2.4-1.6-3.1-4.05-3.3-6.7-.1-1.65-1-2.95-2.05-4.2-.2-.25-.4-.35-.7-.15a22.16 22.16 0 01-3.35 1.5 13.355 13.355 0 00-6.1 4.4 5.315 5.315 0 00-1.1 2.55c-.15.9.1 1.3 1 1.55s1.35.75 1.45 1.7c.05.4-.1.6-.5.6h-4.05a.826.826 0 01-.65-.4 4.28 4.28 0 01-.95-2.75 25.292 25.292 0 01.45-5.15 3.149 3.149 0 011.7-2.4c2.95-1.4 4.5-4.05 5.9-6.8.3-.55.05-.65-.45-.6a8.233 8.233 0 00-3.85 1.6 35.307 35.307 0 00-4.15 3.55 8.335 8.335 0 01-5.15 2.45c-3.65.2-5.35-1.85-5.2-5.15a4.845 4.845 0 011.2-3.05 2.125 2.125 0 012.25-.75c.75.2.95.6.65 1.35-.15.3-.35.55-.5.85a3.75 3.75 0 00-.5 1c-.55 1.5.2 2.55 1.75 2.7 1.65.15 3-.55 4.25-1.55a22.474 22.474 0 004-4.15 10.395 10.395 0 017.2-4.05c1.15-.15 2.15-.65 3.25-.95 2.057-.627 4.2-.93 6.35-.9a6.5 6.5 0 002.9-.55c2.45-1 5-1 7.55-.5 2 .4 4 .9 5.95 1.4a8.291 8.291 0 003.5-.1 33.885 33.885 0 016.7-1 9.079 9.079 0 014.3.85c1 .45 1 .45.75 1.4z" fill="#000"/></g><defs><clipPath id="oa"><path fill="#fff" transform="translate(0 11)" d="M0 0h67v28H0z"/></clipPath></defs></svg><svg fill="none" viewBox="0 0 50 53" id="weight-lose-cat-icon" xmlns="http://www.w3.org/2000/svg"><circle cx="25" cy="28" r="25" fill="#68B738"/><g clip-path="url(#pa)"><path d="M35.203 0h-.195c-.33.187-.593.474-.75.82a8.028 8.028 0 00-.664 1.757.84.84 0 01-.761.691 3.77 3.77 0 00-2.69 1.948c-.372.661-.69 1.35-.952 2.062-.73 1.897-1.29 3.856-1.98 5.768-.324.872-.339.872-1.316.872-1.168 0-1.085-.18-1.1 1.108 0 .407.123.613.555.593.133 0 .334-.067.385.108.052.175-.123.252-.226.355a4.626 4.626 0 01-2.227 1.258c-.977.263-1.975.47-2.926.789-2.443.82-4.7 1.964-6.46 3.902a14.436 14.436 0 00-2.437 4.041c-1.888 4.454-2.803 9.145-3.513 13.882a97.062 97.062 0 00-.75 6.7C7.102 47.759 7 48.877 7 50h17.141a1.126 1.126 0 00-.118-.66 2.577 2.577 0 00-1.97-1.582c-.36-.083-.401-.191-.18-.475.36-.482.637-1.022.818-1.597.838-2.48 1.162-5.067 1.568-7.63.23-1.956.83-3.85 1.77-5.582a11.126 11.126 0 012.874-3.283c.427-.325.443-.325.515.227.051.366.061.742.087 1.113a48.166 48.166 0 01-.092 7.31 31.866 31.866 0 00-.078 5.67A38.826 38.826 0 0030.503 50h6.84a2.79 2.79 0 00-2.18-2.289 4.62 4.62 0 00-1.934.103c-.309.073-.438 0-.463-.335a29.113 29.113 0 01.514-8.154 91.803 91.803 0 001.574-9.371 9.163 9.163 0 011.172-3.609c.612-1.092 1.147-2.226 1.749-3.324a3.031 3.031 0 00.216-2.676c-.139-.366-.273-.737-.442-1.087-.515-1.005-1.029-2-1.502-3.016-.252-.515-.196-.577.365-.593.838 0 .838 0 .854-.845v-.34c0-.356-.134-.552-.515-.516h-.781c-.355 0-.458-.149-.37-.515a3.217 3.217 0 012.638-2.284 11.291 11.291 0 013.404.222.513.513 0 00.643-.33c.206-.515.432-1.03.664-1.546a.517.517 0 00-.052-.588c-1.646-2.093-3.43-4.046-5.863-5.299a.767.767 0 01-.452-.577 10.123 10.123 0 00-.653-2.144A1.803 1.803 0 0035.203 0z" fill="#000"/></g><defs><clipPath id="pa"><path fill="#fff" transform="translate(7)" d="M0 0h36v50H0z"/></clipPath></defs></svg><svg viewBox="0 0 24 19" id="youtube-icon" xmlns="http://www.w3.org/2000/svg"><path d="M15.85 8.793l-5.236-3.491a.655.655 0 00-1.014.545v6.982a.655.655 0 001.014.546l5.237-3.491a.654.654 0 000-1.091zm-4.94 2.814V7.07l3.403 2.27-3.404 2.268zm12.48-8.563a2.4 2.4 0 00-1.452-1.637C18.218-.022 12.251 0 12 0c-.25 0-6.218-.022-9.938 1.407A2.4 2.4 0 00.61 3.044C.327 4.113 0 6.076 0 9.338c0 3.262.327 5.226.61 6.295a2.4 2.4 0 001.452 1.636c3.72 1.43 9.687 1.407 9.938 1.407h.076c.753 0 6.317-.043 9.862-1.407a2.4 2.4 0 001.451-1.636c.284-1.07.611-3.033.611-6.295s-.327-5.225-.61-6.294zm-1.266 12.261a1.09 1.09 0 01-.655.742c-3.49 1.342-9.404 1.32-9.469 1.32-.066 0-5.978.022-9.47-1.32a1.09 1.09 0 01-.654-.742c-.261-1.003-.567-2.847-.567-5.967 0-3.12.306-4.963.567-5.967a1.09 1.09 0 01.655-.742C6.02 1.287 11.934 1.31 12 1.31c.066 0 5.978-.022 9.47 1.32a1.092 1.092 0 01.654.742c.262 1.004.567 2.847.567 5.967 0 3.12-.305 4.964-.567 5.968z" fill="#666"/></svg></svg>